<svg width="50" height="51" viewBox="0 0 50 51" fill="none" xmlns="http://www.w3.org/2000/svg">
<g filter="url(#filter0_i_29_114)">
<path d="M18.2439 8.1012C21.8396 4.05575 28.1604 4.05575 31.7561 8.1012C33.0506 9.55767 34.7812 10.5568 36.6898 10.9497C41.9911 12.0409 45.1515 17.5149 43.4458 22.6515C42.8318 24.5009 42.8318 26.4991 43.4458 28.3485C45.1515 33.4851 41.9911 38.9591 36.6898 40.0503C34.7812 40.4432 33.0506 41.4423 31.7561 42.8988C28.1604 46.9442 21.8396 46.9442 18.2439 42.8988C16.9494 41.4423 15.2188 40.4432 13.3102 40.0503C8.00894 38.9591 4.84853 33.4851 6.55416 28.3485C7.16824 26.4991 7.16824 24.5009 6.55416 22.6515C4.84853 17.5149 8.00894 12.0409 13.3102 10.9497C15.2188 10.5568 16.9494 9.55767 18.2439 8.1012Z" fill="#775AFC"/>
</g>
<g clip-path="url(#clip0_29_114)">
<path d="M24.9905 16.5C20.0237 16.5054 16 20.5331 16 25.5C16.0025 26.9098 16.3362 28.2992 16.9742 29.5564C17.6121 30.8136 18.5364 31.9033 19.6727 32.7378C19.625 32.3722 19.6344 31.9948 19.6938 31.6214C19.0999 31.106 18.5839 30.5071 18.1618 29.8436H20.4019C20.6147 29.5115 20.8339 29.183 21.2164 28.9436C20.9923 28.0256 20.8553 27.0147 20.8301 25.95H21.0724C21.1444 25.6349 21.2614 25.3318 21.4198 25.05H20.8361C20.8742 23.9817 21.0238 22.9703 21.2614 22.0566H24.55V23.6564C24.8682 23.7053 25.1739 23.8156 25.45 23.9812V22.0566H28.9051C28.9519 22.2361 28.9942 22.4202 29.0338 22.6069C29.3367 22.5605 29.6442 22.5535 29.9489 22.5858C29.9141 22.4087 29.8757 22.2322 29.8339 22.0566H32.3341C32.7083 22.8537 32.9494 23.7066 33.0478 24.5816C33.1522 25.4905 33.1542 26.5571 32.8235 27.6004C32.7163 27.999 32.5787 28.3888 32.412 28.7665C32.6151 28.9801 32.861 29.1821 33.1081 29.3882C33.6925 28.1752 33.9973 26.8465 34 25.5C34 20.5295 29.9705 16.5 25 16.5H24.9905ZM25.45 17.5228C26.3982 17.684 27.3044 18.4652 28.0182 19.7614C28.2483 20.1792 28.4538 20.6483 28.6317 21.1564H25.45V17.5228ZM24.55 17.5582V21.1564H21.535C21.7128 20.6483 21.9184 20.1792 22.1484 19.7614C22.8202 18.5414 23.6628 17.7782 24.55 17.5582ZM22.4764 17.8018C22.0581 18.2251 21.6826 18.7414 21.3599 19.3273C21.0575 19.8763 20.7974 20.4913 20.5837 21.1564H18.1618C19.1581 19.5893 20.6773 18.3898 22.4764 17.8018ZM27.7702 17.8851C29.4618 18.4994 30.8878 19.6613 31.8382 21.1564H29.5819C29.3688 20.4913 29.109 19.8763 28.8066 19.3273C28.505 18.7792 28.1561 18.2924 27.7702 17.8851ZM17.6663 22.0566H20.3317C20.1076 22.9858 19.9703 23.9934 19.9352 25.0502H16.913C16.9689 24.0132 17.2246 22.9968 17.6661 22.0568M16.913 25.95H19.9301C19.9533 27.0041 20.0777 28.0117 20.289 28.9434H17.6661C17.2246 28.0034 16.9689 26.987 16.913 25.95Z" fill="white"/>
<path d="M29.68 23.2983C28.1887 23.2983 26.98 24.5072 26.98 25.9983C26.98 27.4895 28.1887 28.6983 29.68 28.6983C31.171 28.6983 32.38 27.4895 32.38 25.9983C32.38 24.5072 31.171 23.2983 29.68 23.2983ZM29.68 29.0985C26.6974 29.0985 25.36 30.4361 25.36 33.4185V33.7785C25.3735 34.4877 25.6871 34.5086 26.35 34.4985H33.01C33.8551 34.4978 34.0058 34.4994 34 33.7785V33.4185C34 30.4361 32.6623 29.0985 29.68 29.0985ZM23.92 24.3101C22.6984 24.3101 21.7076 25.3008 21.7076 26.5227C21.7076 27.7443 22.6984 28.7347 23.92 28.7347C25.1417 28.7347 26.1322 27.7443 26.1322 26.5225C26.1322 25.3007 25.1417 24.3101 23.92 24.3101ZM23.92 29.0625C21.4765 29.0625 20.3805 30.1587 20.3805 32.602V32.897C20.3917 33.4781 20.6485 33.4952 21.1916 33.4869H24.6337C24.5459 32.031 24.9759 30.4848 26.0469 29.5019C25.5047 29.2056 24.8004 29.0625 23.92 29.0625Z" fill="white"/>
</g>
<defs>
<filter id="filter0_i_29_114" x="6.0899" y="5.06714" width="37.8202" height="44.8657" filterUnits="userSpaceOnUse" color-interpolation-filters="sRGB">
<feFlood flood-opacity="0" result="BackgroundImageFix"/>
<feBlend mode="normal" in="SourceGraphic" in2="BackgroundImageFix" result="shape"/>
<feColorMatrix in="SourceAlpha" type="matrix" values="0 0 0 0 0 0 0 0 0 0 0 0 0 0 0 0 0 0 127 0" result="hardAlpha"/>
<feOffset dy="4"/>
<feGaussianBlur stdDeviation="2.5"/>
<feComposite in2="hardAlpha" operator="arithmetic" k2="-1" k3="1"/>
<feColorMatrix type="matrix" values="0 0 0 0 0 0 0 0 0 0 0 0 0 0 0 0 0 0 0.25 0"/>
<feBlend mode="normal" in2="shape" result="effect1_innerShadow_29_114"/>
</filter>
<clipPath id="clip0_29_114">
<rect width="18" height="18" fill="white" transform="translate(16 16.5)"/>
</clipPath>
</defs>
</svg>
