<svg width="50" height="51" viewBox="0 0 50 51" fill="none" xmlns="http://www.w3.org/2000/svg">
<g filter="url(#filter0_i_29_117)">
<path d="M18.2439 8.1012C21.8396 4.05575 28.1604 4.05575 31.7561 8.1012C33.0506 9.55767 34.7812 10.5568 36.6898 10.9497C41.9911 12.0409 45.1515 17.5149 43.4458 22.6515C42.8318 24.5009 42.8318 26.4991 43.4458 28.3485C45.1515 33.4851 41.9911 38.9591 36.6898 40.0503C34.7812 40.4432 33.0506 41.4423 31.7561 42.8988C28.1604 46.9442 21.8396 46.9442 18.2439 42.8988C16.9494 41.4423 15.2188 40.4432 13.3102 40.0503C8.00894 38.9591 4.84853 33.4851 6.55416 28.3485C7.16824 26.4991 7.16824 24.5009 6.55416 22.6515C4.84853 17.5149 8.00894 12.0409 13.3102 10.9497C15.2188 10.5568 16.9494 9.55767 18.2439 8.1012Z" fill="#775AFC"/>
</g>
<g clip-path="url(#clip0_29_117)">
<path d="M31.75 22.5H28.75C27.505 22.5 26.5 21.495 26.5 20.25V17.25C26.5 16.83 26.17 16.5 25.75 16.5H19C18.175 16.5 17.5 17.175 17.5 18V33C17.5 33.825 18.175 34.5 19 34.5H31C31.825 34.5 32.5 33.825 32.5 33V23.25C32.5 22.83 32.17 22.5 31.75 22.5ZM22.75 31.5H21.25C20.83 31.5 20.5 31.17 20.5 30.75C20.5 30.33 20.83 30 21.25 30H22.75C23.17 30 23.5 30.33 23.5 30.75C23.5 31.17 23.17 31.5 22.75 31.5ZM22.75 28.5H21.25C20.83 28.5 20.5 28.17 20.5 27.75C20.5 27.33 20.83 27 21.25 27H22.75C23.17 27 23.5 27.33 23.5 27.75C23.5 28.17 23.17 28.5 22.75 28.5ZM22.75 25.5H21.25C20.83 25.5 20.5 25.17 20.5 24.75C20.5 24.33 20.83 24 21.25 24H22.75C23.17 24 23.5 24.33 23.5 24.75C23.5 25.17 23.17 25.5 22.75 25.5ZM28.75 31.5H25.75C25.33 31.5 25 31.17 25 30.75C25 30.33 25.33 30 25.75 30H28.75C29.17 30 29.5 30.33 29.5 30.75C29.5 31.17 29.17 31.5 28.75 31.5ZM28.75 28.5H25.75C25.33 28.5 25 28.17 25 27.75C25 27.33 25.33 27 25.75 27H28.75C29.17 27 29.5 27.33 29.5 27.75C29.5 28.17 29.17 28.5 28.75 28.5ZM28.75 25.5H25.75C25.33 25.5 25 25.17 25 24.75C25 24.33 25.33 24 25.75 24H28.75C29.17 24 29.5 24.33 29.5 24.75C29.5 25.17 29.17 25.5 28.75 25.5ZM28 17.25V19.5C28 20.325 28.675 21 29.5 21H31.75C32.425 21 32.755 20.19 32.275 19.725L29.275 16.725C28.81 16.245 28 16.59 28 17.25Z" fill="white"/>
</g>
<defs>
<filter id="filter0_i_29_117" x="6.0899" y="5.06714" width="37.8202" height="44.8657" filterUnits="userSpaceOnUse" color-interpolation-filters="sRGB">
<feFlood flood-opacity="0" result="BackgroundImageFix"/>
<feBlend mode="normal" in="SourceGraphic" in2="BackgroundImageFix" result="shape"/>
<feColorMatrix in="SourceAlpha" type="matrix" values="0 0 0 0 0 0 0 0 0 0 0 0 0 0 0 0 0 0 127 0" result="hardAlpha"/>
<feOffset dy="4"/>
<feGaussianBlur stdDeviation="2.5"/>
<feComposite in2="hardAlpha" operator="arithmetic" k2="-1" k3="1"/>
<feColorMatrix type="matrix" values="0 0 0 0 0 0 0 0 0 0 0 0 0 0 0 0 0 0 0.25 0"/>
<feBlend mode="normal" in2="shape" result="effect1_innerShadow_29_117"/>
</filter>
<clipPath id="clip0_29_117">
<rect width="18" height="18" fill="white" transform="translate(16 16.5)"/>
</clipPath>
</defs>
</svg>
