<svg width="50" height="51" viewBox="0 0 50 51" fill="none" xmlns="http://www.w3.org/2000/svg">
<g filter="url(#filter0_i_29_133)">
<path d="M18.2439 8.1012C21.8396 4.05575 28.1604 4.05575 31.7561 8.1012C33.0506 9.55767 34.7812 10.5568 36.6898 10.9497C41.9911 12.0409 45.1515 17.5149 43.4458 22.6515C42.8318 24.5009 42.8318 26.4991 43.4458 28.3485C45.1515 33.4851 41.9911 38.9591 36.6898 40.0503C34.7812 40.4432 33.0506 41.4423 31.7561 42.8988C28.1604 46.9442 21.8396 46.9442 18.2439 42.8988C16.9494 41.4423 15.2188 40.4432 13.3102 40.0503C8.00894 38.9591 4.84853 33.4851 6.55416 28.3485C7.16824 26.4991 7.16824 24.5009 6.55416 22.6515C4.84853 17.5149 8.00894 12.0409 13.3102 10.9497C15.2188 10.5568 16.9494 9.55767 18.2439 8.1012Z" fill="#775AFC"/>
</g>
<path d="M27.25 20.55C27.25 21.1468 27.0129 21.7191 26.591 22.141C26.169 22.563 25.5967 22.8 25 22.8C24.4033 22.8 23.831 22.563 23.409 22.141C22.987 21.7191 22.75 21.1468 22.75 20.55C22.75 19.9533 22.987 19.381 23.409 18.9591C23.831 18.5371 24.4033 18.3 25 18.3C25.5967 18.3 26.169 18.5371 26.591 18.9591C27.0129 19.381 27.25 19.9533 27.25 20.55ZM31.75 21C31.75 21.4774 31.5603 21.9353 31.2228 22.2728C30.8852 22.6104 30.4274 22.8 29.95 22.8C29.4726 22.8 29.0148 22.6104 28.6772 22.2728C28.3396 21.9353 28.15 21.4774 28.15 21C28.15 20.5227 28.3396 20.0648 28.6772 19.7273C29.0148 19.3897 29.4726 19.2 29.95 19.2C30.4274 19.2 30.8852 19.3897 31.2228 19.7273C31.5603 20.0648 31.75 20.5227 31.75 21ZM20.05 22.8C20.5274 22.8 20.9852 22.6104 21.3228 22.2728C21.6603 21.9353 21.85 21.4774 21.85 21C21.85 20.5227 21.6603 20.0648 21.3228 19.7273C20.9852 19.3897 20.5274 19.2 20.05 19.2C19.5726 19.2 19.1148 19.3897 18.7772 19.7273C18.4396 20.0648 18.25 20.5227 18.25 21C18.25 21.4774 18.4396 21.9353 18.7772 22.2728C19.1148 22.6104 19.5726 22.8 20.05 22.8ZM21.4 24.825C21.4 24.204 21.904 23.7 22.525 23.7H27.475C27.7382 23.6999 27.9931 23.7921 28.1953 23.9605C28.3976 24.1288 28.5344 24.3628 28.582 24.6216C27.6877 24.7064 26.8334 25.0329 26.1105 25.5661C25.3876 26.0993 24.8234 26.8192 24.4785 27.6486C24.1335 28.478 24.0207 29.3857 24.1522 30.2743C24.2837 31.1629 24.6546 31.9989 25.225 32.6928C24.7343 32.7236 24.2424 32.6535 23.7798 32.4868C23.3172 32.3202 22.8937 32.0605 22.5353 31.7239C22.1769 31.3872 21.8913 30.9808 21.696 30.5295C21.5008 30.0782 21.4 29.5917 21.4 29.1V24.825ZM29.4901 24.6189C30.5152 24.7089 31.4503 25.1121 32.2 25.7313V24.825C32.2 24.204 31.696 23.7 31.075 23.7H29.1589C29.3389 23.9682 29.4559 24.2814 29.4892 24.6189M20.5 24.825C20.5 24.4083 20.626 24.0222 20.8411 23.7H18.925C18.304 23.7 17.8 24.204 17.8 24.825V28.2C17.7999 28.5854 17.8824 28.9662 18.0417 29.317C18.2011 29.6678 18.4337 29.9805 18.7239 30.2339C19.0141 30.4874 19.3552 30.6758 19.7242 30.7865C20.0933 30.8972 20.4818 30.9276 20.8636 30.8757C20.6232 30.3146 20.4995 29.7105 20.5 29.1V24.825ZM33.1 29.55C33.1 30.6242 32.6733 31.6543 31.9138 32.4138C31.1542 33.1734 30.1241 33.6 29.05 33.6C27.9759 33.6 26.9457 33.1734 26.1862 32.4138C25.4267 31.6543 25 30.6242 25 29.55C25 28.4759 25.4267 27.4458 26.1862 26.6863C26.9457 25.9267 27.9759 25.5 29.05 25.5C30.1241 25.5 31.1542 25.9267 31.9138 26.6863C32.6733 27.4458 33.1 28.4759 33.1 29.55ZM29.5 27.75C29.5 27.6307 29.4526 27.5162 29.3682 27.4319C29.2838 27.3475 29.1693 27.3 29.05 27.3C28.9306 27.3 28.8162 27.3475 28.7318 27.4319C28.6474 27.5162 28.6 27.6307 28.6 27.75V29.1H27.25C27.1306 29.1 27.0162 29.1475 26.9318 29.2318C26.8474 29.3162 26.8 29.4307 26.8 29.55C26.8 29.6694 26.8474 29.7839 26.9318 29.8682C27.0162 29.9526 27.1306 30 27.25 30H28.6V31.35C28.6 31.4694 28.6474 31.5839 28.7318 31.6682C28.8162 31.7526 28.9306 31.8 29.05 31.8C29.1693 31.8 29.2838 31.7526 29.3682 31.6682C29.4526 31.5839 29.5 31.4694 29.5 31.35V30H30.85C30.9693 30 31.0838 29.9526 31.1682 29.8682C31.2526 29.7839 31.3 29.6694 31.3 29.55C31.3 29.4307 31.2526 29.3162 31.1682 29.2318C31.0838 29.1475 30.9693 29.1 30.85 29.1H29.5V27.75Z" fill="white"/>
<defs>
<filter id="filter0_i_29_133" x="6.0899" y="5.06714" width="37.8202" height="44.8657" filterUnits="userSpaceOnUse" color-interpolation-filters="sRGB">
<feFlood flood-opacity="0" result="BackgroundImageFix"/>
<feBlend mode="normal" in="SourceGraphic" in2="BackgroundImageFix" result="shape"/>
<feColorMatrix in="SourceAlpha" type="matrix" values="0 0 0 0 0 0 0 0 0 0 0 0 0 0 0 0 0 0 127 0" result="hardAlpha"/>
<feOffset dy="4"/>
<feGaussianBlur stdDeviation="2.5"/>
<feComposite in2="hardAlpha" operator="arithmetic" k2="-1" k3="1"/>
<feColorMatrix type="matrix" values="0 0 0 0 0 0 0 0 0 0 0 0 0 0 0 0 0 0 0.25 0"/>
<feBlend mode="normal" in2="shape" result="effect1_innerShadow_29_133"/>
</filter>
</defs>
</svg>
