<svg width="200" height="51" viewBox="0 0 200 51" fill="none" xmlns="http://www.w3.org/2000/svg">
<g clip-path="url(#clip0_6_54)">
<path d="M24.8637 32.235L13.4944 36.6078L23.1145 45.3534L34.9211 40.5434L24.8637 32.235Z" fill="white"/>
<mask id="mask0_6_54" style="mask-type:luminance" maskUnits="userSpaceOnUse" x="10" y="30" width="29" height="18">
<path d="M11.772 34.4357L21.9963 30.9504L35.3559 42.6349C36.1664 43.3443 37.3991 43.2624 38.1085 42.4509C38.3435 42.1818 38.4914 41.867 38.5552 41.5405H38.5573C38.4403 42.2254 37.9617 42.8253 37.2576 43.0635L23.8767 47.6252L23.8756 47.6231C23.2385 47.838 22.5078 47.7178 21.9654 47.2434L11.1966 37.8254C10.9063 37.5988 10.6755 37.2883 10.5489 36.9128C10.2022 35.8907 10.7499 34.7814 11.772 34.4357ZM25.3827 33.9231L16.2285 37.0436L23.6831 43.5634L32.8055 40.4535L25.3827 33.9231Z" fill="white"/>
</mask>
<g mask="url(#mask0_6_54)">
<path d="M38.557 30.9493H10.2019V47.839H38.557V30.9493Z" fill="#684DF4"/>
<g filter="url(#filter0_f_6_54)">
<path d="M31.4798 21.7403L14.3689 30.1215L22.354 41.8552L40.6057 33.474L31.4798 21.7403Z" fill="#1C1C25" fill-opacity="0.33"/>
</g>
<g filter="url(#filter1_f_6_54)">
<path d="M41.9752 30.4859L24.8643 38.8671L32.8494 50.6008L51.101 42.2196L41.9752 30.4859Z" fill="#1C1C25" fill-opacity="0.33"/>
</g>
</g>
<path d="M31.4233 4.68637L18.7422 9.05917L29.2369 18.6793L41.0435 12.9947L31.4233 4.68637Z" fill="white"/>
<mask id="mask1_6_54" style="mask-type:luminance" maskUnits="userSpaceOnUse" x="17" y="2" width="27" height="17">
<path d="M42.5349 15.5284L32.4001 18.984L19.3063 7.53029C18.7639 7.05593 18.0332 6.93575 17.3961 7.15059L17.395 7.14846L30.7324 2.60058L30.7334 2.60271C31.3705 2.38786 32.1012 2.50805 32.6436 2.98241L43.1114 12.1377C43.4018 12.3643 43.6326 12.6748 43.7591 13.0503C44.1048 14.0724 43.557 15.1817 42.5349 15.5284ZM29.0051 16.0124L38.0785 12.9195L30.9249 6.6624L21.8514 9.7553L29.0051 16.0124Z" fill="white"/>
</mask>
<g mask="url(#mask1_6_54)">
<path d="M44.1048 2.38785H17.395V18.9829H44.1048V2.38785Z" fill="#684DF4"/>
<g filter="url(#filter2_f_6_54)">
<path d="M18.8559 -0.99826L-2.24756 9.56934L7.60074 24.364L30.1111 13.7964L18.8559 -0.99826Z" fill="#1C1C25" fill-opacity="0.33"/>
</g>
<g filter="url(#filter3_f_6_54)">
<path d="M32.8491 12.9948L11.7456 23.5623L21.5939 38.357L44.1043 27.7894L32.8491 12.9948Z" fill="#1C1C25" fill-opacity="0.33"/>
</g>
</g>
<path d="M16.993 9.93372L6.06104 13.8692L33.1724 39.2315L37.1079 38.3569L39.2943 26.9876L28.3623 17.8048L16.993 9.93372Z" fill="white"/>
<mask id="mask2_6_54" style="mask-type:luminance" maskUnits="userSpaceOnUse" x="3" y="7" width="39" height="37">
<path d="M41.2352 27.9979L38.5592 41.5415L38.5549 41.5405C38.4911 41.867 38.3433 42.1829 38.1082 42.4509C37.3988 43.2613 36.1661 43.3432 35.3557 42.6349L3.75129 14.9924C3.46093 14.7658 3.23013 14.4553 3.10357 14.0798C2.7579 13.0577 3.30565 11.9484 4.32775 11.6027L17.3949 7.14843L17.396 7.15056C18.0331 6.93571 18.7638 7.0559 19.3062 7.53026L40.4949 26.0632C41.0714 26.4993 41.383 27.2395 41.2352 27.9979ZM35.3769 37.4701L37.1797 28.3457L17.5874 11.2092L8.78416 14.2106L35.3769 37.4701Z" fill="white"/>
</mask>
<g mask="url(#mask2_6_54)">
<path d="M41.3827 6.93469H2.75757V43.3443H41.3827V6.93469Z" fill="#684DF4"/>
</g>
<path d="M63.2219 37.4824L56.0505 14.1141H61.7177L66.2654 31.0456L70.5682 14.1141H75.9905L80.2933 31.0456L84.8061 14.1141H90.4732L83.3368 37.4824H77.7046L73.2969 21.0756L68.8541 37.4824H63.2219Z" fill="#141D38"/>
<path d="M97.9999 37.8322C96.2974 37.8322 94.7465 37.5174 93.3472 36.8877C91.9479 36.2347 90.8285 35.2785 89.9889 34.0191C89.1493 32.7364 88.7295 31.1506 88.7295 29.2615C88.7295 27.5124 89.1144 25.9965 89.884 24.7138C90.6536 23.4311 91.6914 22.4399 92.9974 21.7403C94.3034 21.0406 95.7727 20.6908 97.4052 20.6908C99.061 20.6908 100.507 20.994 101.743 21.6004C103.002 22.2067 103.982 23.058 104.682 24.1541C105.381 25.2269 105.731 26.4629 105.731 27.8622C105.731 28.282 105.673 28.7484 105.556 29.2615C105.439 29.7513 105.288 30.1711 105.101 30.5209H93.6621C93.7787 31.2672 94.0352 31.8969 94.4317 32.4099C94.8281 32.8997 95.3762 33.2728 96.0759 33.5294C96.7755 33.7859 97.5801 33.9142 98.4896 33.9142C99.4458 33.9142 100.344 33.7742 101.183 33.4944C102.023 33.1912 102.816 32.7947 103.562 32.305L105.031 35.6983C104.029 36.3979 102.932 36.9343 101.743 37.3075C100.577 37.6573 99.3292 37.8322 97.9999 37.8322ZM93.6621 27.3725H100.763C100.787 27.3258 100.799 27.2792 100.799 27.2325C100.799 27.1859 100.799 27.1159 100.799 27.0226C100.799 26.4862 100.682 26.0315 100.449 25.6583C100.215 25.2619 99.854 24.9587 99.3642 24.7488C98.8978 24.5156 98.2914 24.399 97.5451 24.399C96.8688 24.399 96.2508 24.5272 95.691 24.7838C95.1547 25.017 94.7115 25.3551 94.3617 25.7983C94.0119 26.2414 93.7787 26.7661 93.6621 27.3725Z" fill="#141D38"/>
<path d="M118.939 37.8322C117.727 37.8322 116.677 37.6106 115.791 37.1675C114.905 36.7244 114.205 36.1297 113.692 35.3834V37.4824H109.109V14.1141H113.937V22.8248C114.45 22.1717 115.126 21.6587 115.966 21.2855C116.805 20.8891 117.797 20.6908 118.939 20.6908C120.432 20.6908 121.761 21.0406 122.927 21.7403C124.117 22.4166 125.061 23.3961 125.761 24.6788C126.461 25.9615 126.81 27.4891 126.81 29.2615C126.81 31.034 126.461 32.5615 125.761 33.8442C125.061 35.1269 124.117 36.1181 122.927 36.8177C121.761 37.494 120.432 37.8322 118.939 37.8322ZM117.82 33.6343C118.613 33.6343 119.312 33.4594 119.919 33.1096C120.548 32.7597 121.027 32.2583 121.353 31.6053C121.703 30.929 121.878 30.1477 121.878 29.2615C121.878 28.352 121.703 27.5707 121.353 26.9177C121.027 26.2647 120.548 25.7633 119.919 25.4134C119.312 25.0636 118.613 24.8887 117.82 24.8887C117.027 24.8887 116.316 25.0636 115.686 25.4134C115.056 25.7633 114.578 26.2647 114.252 26.9177C113.925 27.5707 113.762 28.352 113.762 29.2615C113.762 30.1477 113.925 30.929 114.252 31.6053C114.578 32.2583 115.045 32.7597 115.651 33.1096C116.281 33.4594 117.004 33.6343 117.82 33.6343Z" fill="#141D38"/>
<path d="M136.975 37.4824V16.7728H129.629V14.1141H147.295V16.7728H139.983V37.4824H136.975Z" fill="#141D38"/>
<path d="M152.349 37.8322C150.717 37.8322 149.247 37.494 147.941 36.8177C146.635 36.1414 145.609 35.1735 144.863 33.9142C144.117 32.6315 143.743 31.0806 143.743 29.2615C143.743 27.5124 144.105 25.9965 144.828 24.7138C145.551 23.4311 146.53 22.4399 147.766 21.7403C149.002 21.0406 150.378 20.6908 151.894 20.6908C153.504 20.6908 154.891 21.0057 156.057 21.6354C157.223 22.265 158.121 23.1163 158.751 24.1891C159.381 25.2385 159.695 26.4396 159.695 27.7923C159.695 28.1654 159.637 28.5852 159.521 29.0516C159.427 29.4947 159.299 29.8562 159.136 30.1361H146.647C146.764 31.2555 147.067 32.2117 147.557 33.0046C148.07 33.7742 148.758 34.3573 149.62 34.7537C150.483 35.1502 151.475 35.3484 152.594 35.3484C153.69 35.3484 154.646 35.1852 155.463 34.8587C156.302 34.5089 157.107 34.0191 157.876 33.3894L158.996 35.5234C158.11 36.293 157.107 36.876 155.987 37.2725C154.868 37.6456 153.655 37.8322 152.349 37.8322ZM146.647 27.7573H156.757C156.78 27.7106 156.792 27.664 156.792 27.6173C156.792 27.5707 156.792 27.5007 156.792 27.4074C156.792 26.5679 156.617 25.8332 156.267 25.2036C155.917 24.5505 155.381 24.0491 154.658 23.6993C153.958 23.3495 153.072 23.1746 151.999 23.1746C151.16 23.1746 150.367 23.3611 149.62 23.7343C148.874 24.0841 148.245 24.5972 147.731 25.2735C147.218 25.9498 146.857 26.7778 146.647 27.7573Z" fill="#141D38"/>
<path d="M171.819 37.8322C170.163 37.8322 168.694 37.4824 167.411 36.7827C166.129 36.0598 165.126 35.0569 164.403 33.7742C163.68 32.4916 163.319 30.9873 163.319 29.2615C163.319 27.5357 163.68 26.0315 164.403 24.7488C165.126 23.4661 166.129 22.4749 167.411 21.7753C168.694 21.0523 170.163 20.6908 171.819 20.6908C173.009 20.6908 174.081 20.8657 175.038 21.2156C176.017 21.5654 176.88 22.0668 177.626 22.7198L176.542 24.8537C175.796 24.2707 175.014 23.8509 174.198 23.5944C173.382 23.3145 172.589 23.1746 171.819 23.1746C170.7 23.1746 169.72 23.4195 168.881 23.9092C168.041 24.399 167.388 25.0986 166.922 26.0081C166.455 26.9177 166.222 28.0021 166.222 29.2615C166.222 30.5209 166.455 31.6053 166.922 32.5149C167.388 33.4244 168.041 34.1241 168.881 34.6138C169.72 35.1036 170.7 35.3484 171.819 35.3484C172.589 35.3484 173.382 35.2202 174.198 34.9636C175.014 34.6838 175.796 34.2523 176.542 33.6693L177.626 35.8032C176.88 36.4562 176.017 36.9576 175.038 37.3075C174.081 37.6573 173.009 37.8322 171.819 37.8322Z" fill="#141D38"/>
<path d="M182.028 37.4824V14.1141H184.861V29.1566L193.152 21.0406H196.65L189.654 27.7923L197 37.4824H193.502L187.66 29.7163L184.861 32.4099V37.4824H182.028Z" fill="#141D38"/>
</g>
<defs>
<filter id="filter0_f_6_54" x="10.3689" y="17.7403" width="34.2368" height="28.1149" filterUnits="userSpaceOnUse" color-interpolation-filters="sRGB">
<feFlood flood-opacity="0" result="BackgroundImageFix"/>
<feBlend mode="normal" in="SourceGraphic" in2="BackgroundImageFix" result="shape"/>
<feGaussianBlur stdDeviation="2" result="effect1_foregroundBlur_6_54"/>
</filter>
<filter id="filter1_f_6_54" x="20.8643" y="26.4859" width="34.2367" height="28.1149" filterUnits="userSpaceOnUse" color-interpolation-filters="sRGB">
<feFlood flood-opacity="0" result="BackgroundImageFix"/>
<feBlend mode="normal" in="SourceGraphic" in2="BackgroundImageFix" result="shape"/>
<feGaussianBlur stdDeviation="2" result="effect1_foregroundBlur_6_54"/>
</filter>
<filter id="filter2_f_6_54" x="-6.24756" y="-4.99826" width="40.3587" height="33.3623" filterUnits="userSpaceOnUse" color-interpolation-filters="sRGB">
<feFlood flood-opacity="0" result="BackgroundImageFix"/>
<feBlend mode="normal" in="SourceGraphic" in2="BackgroundImageFix" result="shape"/>
<feGaussianBlur stdDeviation="2" result="effect1_foregroundBlur_6_54"/>
</filter>
<filter id="filter3_f_6_54" x="7.74561" y="8.9948" width="40.3587" height="33.3622" filterUnits="userSpaceOnUse" color-interpolation-filters="sRGB">
<feFlood flood-opacity="0" result="BackgroundImageFix"/>
<feBlend mode="normal" in="SourceGraphic" in2="BackgroundImageFix" result="shape"/>
<feGaussianBlur stdDeviation="2" result="effect1_foregroundBlur_6_54"/>
</filter>
<clipPath id="clip0_6_54">
<rect width="194" height="46" fill="white" transform="translate(3 2.5)"/>
</clipPath>
</defs>
</svg>
